<?xml version="1.0" encoding="UTF-8" standalone="no"?>
<svg
   width="1024"
   height="1024"
   viewBox="0 0 1024 1024"
   version="1.1"
   id="svg3"
   xmlns="http://www.w3.org/2000/svg"
   xmlns:svg="http://www.w3.org/2000/svg">
  <defs
     id="defs3" />
  <g
     id="g3"
     transform="translate(10.807388,-41.878628)">
    <path
       d="M 502.51236,60.238357 A 492.10047,489.86329 0 0 0 10.412937,550.10088 492.10047,489.86329 0 0 0 502.51236,1039.9634 492.10047,489.86329 0 0 0 994.61438,550.10088 492.10047,489.86329 0 0 0 502.51236,60.238357 Z"
       style="display:inline;fill:#22d3ee;stroke:#22d3ee;stroke-width:1.33386"
       id="path6" />
    <ellipse
       style="fill:#ffffff;fill-opacity:1;fill-rule:nonzero;stroke:#22d3ee;stroke-width:0;stroke-linejoin:round;stroke-dasharray:none;stroke-opacity:1"
       id="path8"
       cx="512.90063"
       cy="208.94283"
       rx="211.19437"
       ry="98.167107"
       transform="translate(-10.807388,41.878628)" />
    <path
       id="path1"
       d="M 519.54413,42.738343 C 190.73903,42.231751 176.69926,42.417657 153.07687,47.656883 115.44118,55.988985 80.727012,74.986912 53.034083,102.3962 17.547102,137.49768 -2.4717724,180.26469 -6.9159866,230.37729 c -1.8417468,20.9169 -1.8550928,642.86501 0,663.9019 4.1239099,46.9264 23.3292006,86.65282 57.8152336,119.58131 29.654782,28.3292 66.863913,46.4615 105.634013,51.4741 2.20208,0.2934 158.69756,0.612 347.75682,0.7187 307.93198,0.1733 345.07386,-0.013 356.33788,-1.906 37.52891,-6.2924 72.00025,-24.4905 100.70747,-53.1796 29.34783,-29.31569 46.97787,-63.20401 53.38397,-102.65152 1.6816,-10.34513 1.9494,-59.01587 1.9628,-345.14692 V 517.6161 c 0.013,-279.93197 0.014,-300.19638 -5.1638,-319.0336 -0.6807,-2.43964 -1.4423,-4.85438 -2.2965,-7.81395 C 989.73685,123.60514 936.77975,70.266675 870.54362,51.109506 866.57985,49.963009 863.64291,48.978461 860.6801,48.138585 841.71543,42.792709 821.11008,43.20494 519.54413,42.738343 Z m 5.40877,41.298591 c 19.59964,0.738638 39.04004,2.655647 57.98467,5.775187 19.84549,3.266184 54.27762,12.036649 73.53587,18.729009 69.26568,24.07641 125.79929,59.6996 179.50355,113.13171 82.4782,82.02788 130.0848,184.51899 139.29353,299.86194 5.285,66.20355 -5.9397,138.51235 -31.44388,202.43624 -14.26685,35.78138 -25.54412,57.28446 -46.93774,89.55968 -30.80254,46.4598 -75.53735,92.38677 -121.48758,124.74199 -50.59465,35.60807 -105.18214,60.80394 -161.60897,74.56191 -16.60241,4.0527 -31.88241,6.8385 -55.54485,10.1313 -13.93322,1.9464 -70.96062,3.6672 -82.74513,2.5075 -56.74715,-5.5858 -98.41331,-15.225 -142.13477,-32.86238 C 188.28336,934.09967 80.861197,810.26493 45.107301,660.31376 35.63165,620.59963 32.454357,588.31117 33.468652,542.43795 34.202681,510.06939 36.286217,489.97893 41.744726,463.00958 74.722663,299.98034 194.67609,163.50623 353.38658,108.43436 405.9264,90.197065 466.15403,81.821009 524.9529,84.036934 Z m -12.24338,25.053576 c -13.06313,-0.20503 -26.14833,0.18186 -39.20905,1.17171 -80.19603,6.0791 -150.20909,30.24741 -216.8723,74.8275 -79.68889,53.29879 -143.42808,136.06207 -174.217269,226.20876 -17.042829,49.88595 -23.288964,88.33236 -23.23558,143.03094 0.05338,41.83381 2.680875,65.65612 11.302383,102.13075 29.227714,123.63506 114.482516,232.57928 228.190326,291.61055 35.98923,18.67783 72.61822,32.361 109.67952,40.98873 0.86039,-5.77329 3.62066,-13.39266 6.77727,-16.97925 8.04763,-9.15866 10.85184,-9.81106 42.30834,-9.81106 h 28.07871 V 870.9493 c 0,-20.89024 0.0255,-38.39391 0.0522,-38.9005 0.0267,-0.49327 -6.43276,-2.21447 -14.34692,-3.82755 -32.84447,-6.66569 -62.39102,-22.54323 -86.5873,-46.55303 -24.22296,-24.02311 -39.78366,-50.92612 -48.96569,-84.64114 l -4.19154,-15.38313 -0.46659,-60.13696 -0.48222,-60.13954 4.19147,-3.51772 c 7.15346,-6.01244 16.54945,-4.06565 19.77917,4.09316 0.96092,2.4263 1.65491,23.24864 2.0019,59.70991 0.62727,66.75014 1.18832,70.34961 15.5486,99.98523 18.97799,39.18088 54.8908,68.94908 96.81054,80.24074 11.99805,3.23952 15.56205,3.58802 36.00811,3.58802 20.2592,0 24.06166,-0.37536 35.52587,-3.46823 24.9303,-6.73234 44.66891,-18.06328 64.28752,-36.91382 18.44415,-17.71739 30.52301,-35.82116 38.78417,-58.11121 7.86079,-21.19687 7.95431,-22.10351 8.78176,-85.76076 l 0.76114,-59.11106 4.36351,-3.87964 c 7.28691,-6.51904 16.66903,-4.69336 20.24576,3.9187 1.21448,2.93288 1.48277,17.69206 1.05569,59.04596 -0.50714,50.09926 -0.81577,56.24376 -3.3782,67.37545 -5.77881,25.1163 -14.03831,44.58082 -27.65121,65.07112 -26.86548,40.44736 -68.65239,68.19067 -114.08215,75.73622 l -10.00947,1.66642 v 130.56664 l 58.92305,1.33313 5.67204,3.74685 c 6.75356,4.46756 11.70973,13.88727 12.10522,22.80912 45.17552,-10.49279 91.5134,-28.92426 131.49709,-52.91144 81.73083,-49.01943 146.85832,-123.51509 183.88009,-210.30226 7.9809,-18.70391 19.87374,-55.54003 24.29125,-75.25711 C 978.4599,479.03294 912.04974,303.55229 767.55273,195.52828 694.49679,140.90133 604.15151,110.52585 512.70952,109.09051 Z M 408.34755,989.05958 c -587.46588,-1117.29597 -587.46588,-1117.29597 0,0 z M 504.6446,163.62152 c 2.98448,-0.10998 5.92539,1.00444 8.29431,3.36409 l 3.26873,3.28077 v 75.46801 c 0,49.21938 -0.47952,76.36341 -1.37371,78.04316 -1.3079,2.43964 -7.98078,6.67755 -10.23626,6.50424 -3.97972,-0.66665 -6.9659,-3.00604 -9.55595,-5.98609 -2.84267,-3.59947 -2.85687,-4.03961 -2.85687,-78.20199 V 171.5188 l 3.89693,-3.90568 c 2.54908,-2.5463 5.57831,-3.88162 8.56282,-3.9916 z m 82.05696,14.63065 c 3.08459,0.0318 6.14552,1.22608 8.35427,3.5724 l 3.22963,3.43959 0.37276,60.48325 0.37535,60.48585 -3.71186,3.95775 c -4.67108,4.99927 -7.92647,5.86602 -13.27821,3.54636 -2.33555,-0.99986 -4.88463,-3.02477 -5.67205,-4.50455 -0.97426,-1.81306 -1.44147,-22.55782 -1.44147,-63.49843 v -60.80351 l 3.26873,-3.28076 c 2.30885,-2.29967 5.41826,-3.4296 8.50285,-3.39795 z m -164.73954,0.11199 c 2.90608,-0.0109 5.89445,1.06754 8.41684,3.23389 l 3.75095,3.22608 v 122.80738 l -3.33649,3.22608 c -5.40075,5.87919 -14.10758,4.66966 -18.57752,-1.62475 -0.97426,-1.81308 -1.44147,-22.55781 -1.44147,-63.49843 v -60.80352 l 3.26872,-3.28076 c 2.18875,-2.17968 5.01288,-3.27598 7.91897,-3.28597 z m 124.11248,23.86625 c 2.89442,0.0367 5.69373,1.45761 8.0493,4.25718 l 3.4564,4.09314 v 73.3225 l -3.89692,3.90567 c -3.95042,3.94609 -7.71493,4.69223 -12.97324,2.57254 -6.85984,-2.77291 -7.15263,-4.53339 -7.15263,-43.74094 v -36.46075 l 3.89694,-3.90568 c 2.73591,-2.73293 5.72574,-4.08032 8.62015,-4.04366 z m -82.82594,0.42182 c 5.23035,-0.28907 8.93984,2.12271 11.0652,7.22029 2.84267,6.78566 2.20394,71.63014 -0.74552,76.06949 -6.48052,9.54906 -15.01334,4.2736 -21.46045,-1.57269 l -0.0547,-37.11431 c 1.89994,-12.01614 -7.63016,-42.90453 11.1955,-44.60278 z m 164.26513,6.23866 c 3.22806,-0.0817 6.43163,0.96278 8.50025,3.15577 2.68255,2.86626 2.84447,4.51934 3.15142,33.66171 0.36035,32.91514 0.0121,34.94109 -6.50094,37.90065 -4.1506,1.89305 -6.92752,1.73245 -11.305,-0.64053 -5.75212,-3.11954 -6.63212,-8.79755 -6.15167,-39.48635 0.41374,-27.06267 0.48077,-27.62259 3.65711,-30.99542 2.16873,-2.30634 5.42078,-3.51418 8.64883,-3.59583 z m -245.47234,0.15622 c 5.43181,0 6.3648,0.46659 8.72704,4.33269 2.42897,3.97275 2.64281,6.77243 2.65616,34.10172 v 29.75602 c -4.72306,5.29619 -9.47103,9.12855 -16.87016,6.47823 -6.71305,-2.70627 -7.15262,-5.05165 -7.15262,-37.70017 v -30.42258 c 3.5134,-4.13365 7.06547,-6.44656 12.63958,-6.54591 z m -41.08062,18.57017 c 10.85972,0.2564 11.05413,9.76397 11.09126,18.39832 0,14.30456 -0.45418,15.83579 -5.43224,18.40874 -4.45755,2.29299 -7.58011,2.4137 -11.25024,0.414 -5.21829,-2.85291 -6.00571,-5.26474 -6.00571,-18.48946 -0.6647,-9.28924 0.63053,-18.50143 11.59693,-18.7316 z m 328.73881,0.0938 c 8.3012,0 10.66374,4.20062 10.66374,18.94511 0,11.39833 -0.17339,12.09041 -3.89691,15.82319 -3.95042,3.94609 -7.71493,4.69223 -12.97324,2.57253 -5.39178,-2.173 -7.15263,-6.53142 -7.15263,-17.70311 0,-10.87839 2.06737,-17.27922 6.05783,-18.81233 1.20114,-0.45327 4.47186,-0.82539 7.30121,-0.82539 z M 504.07635,354.385 c 19.56521,0.0267 30.92254,2.10698 45.26949,8.30607 34.0456,14.70449 58.29484,43.47483 67.63704,80.26939 l 3.32346,13.06318 v 109.37185 c 0,96.81236 -9.3e-4,112.71657 -4.96564,126.87448 -1.00095,2.8929 -2.22815,5.71864 -3.69621,9.13146 -7.28691,16.98416 -12.6517,24.84925 -26.03772,38.23395 -17.937,17.91735 -35.87527,27.80911 -59.00386,32.55508 -9.39558,1.91971 -30.20072,2.56045 -38.42185,1.18732 -18.72442,-3.1462 -41.02672,-13.27792 -56.22779,-25.55612 -14.8274,-11.98489 -24.54275,-24.66396 -33.16427,-43.28787 -2.04192,-4.41268 -3.66847,-7.75875 -4.96303,-11.22491 -5.08483,-13.59799 -5.08587,-29.10153 -5.07252,-118.46166 V 562.32824 451.01135 l 3.68318,-11.73263 c 10.93037,-34.82152 33.1113,-60.61626 64.62117,-75.16079 15.85504,-7.31891 27.6802,-9.75959 47.01855,-9.73293 z m -0.0886,25.91025 c -0.12265,-0.005 -0.2447,-0.002 -0.36753,0.002 -1.6379,0.0761 -3.25935,1.0337 -3.86825,2.6168 -0.36035,0.91986 -0.53259,12.11809 -0.38579,24.88955 0.13346,12.77144 0.0248,24.40994 -0.25546,25.87639 -0.29361,1.54643 -2.84175,3.78609 -6.04478,5.33255 -7.72733,3.71944 -11.55784,9.93258 -11.55784,18.74461 v 7.01198 l -16.2967,8.62374 c -16.26876,8.61205 -16.29545,8.61289 -19.68534,6.18658 -8.00758,-5.73247 -19.77853,-3.81236 -25.14364,4.09315 -2.58911,3.81277 -3.05611,5.8784 -2.56232,11.25093 0.50716,5.39921 1.44357,7.34736 5.24718,10.81352 2.53573,2.31966 5.31054,4.46413 6.16469,4.7441 1.02764,0.34659 2.7227,15.38636 5.11161,45.35527 l 3.56329,44.84493 -5.44528,5.16069 c -9.39558,8.94537 -8.63578,21.24988 1.70736,27.34231 4.83125,2.85292 4.84438,2.87958 4.12369,10.33182 -0.40038,4.10606 -1.12065,13.35823 -1.5744,20.54384 -0.76074,11.75826 -1.13316,13.19856 -3.72229,14.19843 -6.91322,2.66627 -12.37266,12.90339 -10.63769,19.94235 2.08198,8.45208 8.52747,13.43812 17.37585,13.43812 10.23638,-0.0133 18.88655,-9.59754 17.37846,-19.26278 -0.61391,-3.90608 0.0255,-4.51922 16.73462,-15.89087 l 17.36282,-11.82639 4.19148,1.98669 4.17583,1.99971 -0.13293,38.95517 c -0.12012,31.84863 0.1882,39.28639 1.72299,40.81949 2.30886,2.293 3.3636,2.34758 5.43223,0.28121 1.17445,-1.17315 1.60048,-12.01301 1.60048,-40.4888 v -38.87447 l 10.66375,-7.05104 14.68059,7.35829 c 13.37268,6.69234 14.69362,7.69156 14.69362,11.02441 0,5.51918 4.31149,12.46534 9.423,15.19827 12.01139,6.43906 25.27657,-1.48081 25.27657,-15.06547 0,-5.58585 -0.6795,-7.22446 -4.8301,-11.82379 l -4.8327,-5.34556 5.57819,-24.99631 c 6.68634,-29.87558 7.52695,-33.96966 9.79576,-35.0495 0.44042,-0.21331 0.93474,-0.30641 1.53532,-0.45306 5.2583,-1.31981 11.29204,-7.31922 12.73342,-12.65177 2.62914,-9.78523 -2.81821,-19.15551 -12.58747,-21.62181 l -5.39052,-1.34616 -6.47228,-18.59881 -6.47229,-18.59622 4.13674,-4.70502 c 3.48329,-3.95942 4.13674,-5.80166 4.13674,-11.5608 0,-6.38573 -0.4008,-7.22528 -6.09954,-12.6778 l -6.11257,-5.85071 1.70996,-22.78309 c 0.93422,-12.54482 2.33336,-23.28979 3.09408,-23.8897 12.51854,-9.71856 15.20086,-14.70481 12.79859,-23.65016 -2.18874,-8.10545 -7.87247,-12.18569 -16.97443,-12.18569 -6.57956,0 -7.84827,0.47878 -11.86541,4.49153 -3.00285,2.99955 -4.77755,6.27927 -5.35144,9.87875 l -0.86801,5.40024 -14.10712,6.11889 -14.10452,6.1319 -3.43033,-3.26515 c -1.88178,-1.7864 -5.0722,-3.88005 -7.08746,-4.63993 l -3.67017,-1.38528 v -26.52994 c 0,-20.87692 -0.38588,-26.86405 -1.82725,-28.05053 -0.68316,-0.56431 -1.52671,-0.8423 -2.38508,-0.87226 z m 50.02139,61.22791 c 1.82316,0.10281 3.09262,1.02278 5.06469,2.52829 l 4.52513,3.4396 -2.01495,24.20995 c -1.73497,21.05023 -2.33481,24.45013 -4.59028,26.0899 -1.42802,1.0265 -2.93811,1.87993 -3.36517,1.87993 -0.41374,0 -7.40526,-6.74567 -15.53297,-14.99779 l -14.77442,-14.99778 1.86895,-5.33255 c 1.02766,-2.93289 1.60017,-6.73243 1.27987,-8.43885 -0.5205,-2.74626 0.56001,-3.63967 9.14147,-7.54576 10.09708,-4.59682 14.62991,-6.62875 17.57918,-6.82712 0.28673,-0.0193 0.55804,-0.0225 0.81848,-0.007 z m -67.95507,31.95883 c 0.76907,-0.0109 1.31929,0.18268 1.80641,0.52596 1.28122,0.90653 4.5907,2.86562 7.35332,4.35873 l 5.03082,2.72096 -0.63863,27.62093 c -0.36034,15.19775 -0.68231,28.31726 -0.709,29.15714 -0.04,1.3198 -6.63295,4.46549 -9.3422,4.46549 -0.4938,0 -9.39339,-8.93316 -19.77657,-19.83822 l -18.87206,-19.83562 0.81329,-6.93387 0.8289,-6.93127 16.49482,-8.21232 c 10.42988,-5.18923 14.70372,-7.06417 17.0109,-7.09791 z m 31.82184,3.2313 28.36024,28.25102 -0.22679,8.82422 -0.22677,8.83984 -12.66566,10.51668 c -6.95325,5.78582 -13.15925,10.50688 -13.78651,10.48022 -0.61391,-0.0267 -2.28122,-0.91986 -3.70925,-1.99971 -1.428,-1.07984 -3.68349,-1.96064 -5.00474,-1.96064 -2.25548,0 -2.41637,-1.93409 -2.41637,-29.72998 v -29.72738 l 4.8301,-1.74714 z m -74.37781,32.31553 c 1.24117,-0.0267 10.37098,9.01252 31.87137,31.5292 l 7.84598,8.22534 -2.18698,5.46534 c -2.6158,6.53237 -2.68379,11.02514 -0.28151,17.77081 l 1.80119,5.0253 -13.98462,12.97205 c -7.68728,7.13228 -14.37446,13.1193 -14.86826,13.27929 -0.48046,0.1733 -2.37579,-0.43931 -4.21755,-1.35918 l -3.32345,-1.69507 -3.48247,-44.6184 c -3.46996,-44.43344 -3.44442,-46.54136 0.8263,-46.59468 z m 108.19112,20.22357 c 1.11009,-0.0636 4.27907,0.87435 7.31945,2.17417 l 5.91185,2.53347 5.93793,18.14316 5.94052,18.15617 -3.16444,3.36148 c -1.74834,1.85305 -3.81591,3.31847 -4.60334,3.26514 -0.80075,-0.0533 -10.1564,-2.67846 -20.79315,-5.82466 l -19.35169,-5.7205 -0.77416,-4.50455 c -0.41373,-2.47963 -1.19989,-5.81289 -1.72038,-7.42598 -0.82745,-2.49297 0.81337,-4.42602 11.26327,-13.33137 6.72638,-5.71915 12.94447,-10.58458 13.83865,-10.79788 0.055,-0.0133 0.12144,-0.0244 0.19549,-0.0286 z m -24.21828,45.04803 c 0.77408,-0.0133 10.22398,2.49256 20.98085,5.5721 19.04472,5.45253 19.5916,5.70447 20.36566,9.61056 0.44042,2.19967 0.34679,4.41486 -0.21374,4.90813 -4.23068,3.71944 -53.48927,42.57892 -53.88964,42.49893 -0.28027,-0.04 -1.85624,-0.73374 -3.51115,-1.53363 -2.93611,-1.41312 -3.00284,-1.91773 -3.00284,-24.3011 V 588.1916 l 5.92488,-2.87979 c 3.25642,-1.5731 7.27544,-4.69419 8.93034,-6.93386 1.64157,-2.22634 3.62824,-4.06419 4.41564,-4.07753 z m -39.18297,9.03774 5.95095,2.26789 5.95356,2.27831 v 45.13916 l -4.33744,2.64024 c -2.38893,1.45312 -4.93802,2.61222 -5.67206,2.58555 -0.73402,-0.04 -7.48709,-3.38598 -15.01423,-7.45202 -11.19728,-6.05245 -13.67963,-7.93258 -13.67963,-10.42555 0,-1.67975 -0.34711,-4.78522 -0.77418,-6.91824 -0.70734,-3.53282 0.40175,-4.94627 13.40073,-16.98446 z m 87.69253,17.97651 c 0.0257,3.8e-4 0.0495,0.002 0.0702,0.007 0.60057,0.13332 1.09543,0.0657 1.40238,0.26559 0.97426,0.6399 0.25347,3.85255 -4.11066,23.44965 -0.56053,2.5063 -1.17529,5.29423 -1.85593,8.37376 l -6.45926,29.10248 -4.67108,1.94504 c -2.57579,1.07981 -5.60668,2.7075 -6.72774,3.61403 -1.7083,1.38647 -4.54973,0.37402 -16.73462,-5.91839 l -14.68059,-7.58742 -0.77417,-5.62417 -0.7872,-5.61375 26.5851,-21.24948 c 15.71241,-12.54563 27.11779,-20.79034 28.7434,-20.76515 z m -117.21271,30.0971 13.7057,7.34528 13.70571,7.34526 0.44052,11.6259 -16.08295,11.06347 c -8.8484,6.09241 -16.74944,11.30687 -17.56354,11.58682 -0.82746,0.26662 -3.20168,-0.42649 -5.28364,-1.55966 -3.72354,-2.01304 -3.78964,-2.22759 -3.02894,-10.9463 0.42707,-4.89261 1.13369,-14.01023 1.58745,-20.26263 l 0.82631,-11.37333 5.84669,-2.41109 z"
       style="display:inline;fill:#1c2224;fill-rule:nonzero;stroke:#22d3ee;stroke-width:0;stroke-linejoin:round;stroke-dasharray:none;stroke-opacity:1" />
  </g>
  <g
     id="layer2"
     style="display:none" />
  <path
     id="path7"
     d="m 523.5,128.25 c -246.37,-0.38 -256.88984,-0.24055 -274.58984,3.68945 -28.2,6.25 -54.21094,20.50055 -74.96094,41.06055 -26.59,26.33 -41.58992,58.41 -44.91992,96 -1.38,15.69 -1.39,482.22 0,498 3.09,35.2 17.48031,64.99922 43.32031,89.69922 22.22,21.25 50.10039,34.85133 79.15039,38.61133 1.65,0.22 118.91031,0.45906 260.57031,0.53906 230.73,0.13 258.56,-0.01 267,-1.42969 28.12,-4.72 53.94899,-18.37062 75.45899,-39.89062 21.99,-21.99 35.2,-47.41 40,-77 1.26,-7.76 1.4607,-44.26844 1.4707,-258.89844 v -34.16992 c 0.01,-209.98 0.0109,-225.18055 -3.86914,-239.31055 -0.51,-1.83 -1.0807,-3.64133 -1.7207,-5.86133 -14.6,-50.38 -54.28016,-90.38976 -103.91016,-104.75976 -2.97,-0.86 -5.17062,-1.59852 -7.39062,-2.22852 C 764.89937,128.29078 749.46,128.6 523.5,128.25 Z m 4.05273,30.97852 c 14.68579,0.55406 29.25227,1.99203 43.44727,4.33203 14.87,2.45 40.66961,9.02882 55.09961,14.04883 51.9,18.05998 94.26,44.78132 134.5,84.86132 61.8,61.53 97.47109,138.40969 104.37109,224.92969 3.96,49.66 -4.45054,103.89961 -23.56054,151.84961 -10.69,26.84 -19.13993,42.96969 -35.16993,67.17969 -23.08,34.85 -56.59929,69.30031 -91.02929,93.57031 -37.91,26.71 -78.8118,45.60969 -121.0918,55.92969 -12.44,3.04 -23.88914,5.12961 -41.61914,7.59961 -10.44,1.46 -53.17,2.75086 -62,1.88086 -42.52,-4.19 -73.74,-11.42039 -106.5,-24.65039 C 275.29,796.86977 194.79977,703.98 168.00977,591.5 c -7.1,-29.79 -9.48071,-54.00992 -8.72071,-88.41992 0.55,-24.28 2.11117,-39.35008 6.20117,-59.58008 C 190.20023,321.21 280.08,218.8393 399,177.5293 c 39.3675,-13.68 84.49539,-19.96297 128.55273,-18.30078 z m -9.17382,18.79296 c -9.78807,-0.1538 -19.59266,0.13641 -29.37891,0.87891 -60.09,4.56 -112.55,22.68891 -162.5,56.12891 -59.71,39.98 -107.46906,102.06164 -130.53906,169.68164 -12.77,37.42 -17.45016,66.25906 -17.41016,107.28906 0.04,31.38 2.00875,49.24937 8.46875,76.60938 21.9,92.74 85.78047,174.46023 170.98047,218.74023 26.96633,14.01044 54.41202,24.27434 82.18164,30.74609 0.64468,-4.33061 2.71292,-10.04598 5.07813,-12.73632 6.03,-6.87001 8.13117,-7.35938 31.70117,-7.35938 H 498 v -68.5 c 0,-15.67 0.0191,-28.79969 0.0391,-29.17969 0.02,-0.37 -4.82,-1.66109 -10.75,-2.87109 -24.61,-5 -46.7489,-16.90992 -64.8789,-34.91992 -18.15,-18.02 -29.80946,-38.20024 -36.68946,-63.49024 L 382.58008,607.5 l -0.34961,-45.10938 -0.36133,-45.11132 3.14063,-2.63868 c 5.36,-4.50999 12.40031,-3.04968 14.82031,3.07032 0.72,1.82 1.24,17.43906 1.5,44.78906 0.47,50.07 0.89039,52.77 11.65039,75 14.22,29.39 41.12906,51.71945 72.53906,60.18945 8.99,2.43 11.66047,2.69141 26.98047,2.69141 15.18,0 18.02914,-0.28156 26.61914,-2.60156 18.68,-5.05 33.46992,-13.54946 48.16992,-27.68946 13.82,-13.29 22.87055,-26.86984 29.06055,-43.58984 5.89,-15.9 5.96008,-16.58008 6.58008,-64.33008 l 0.57031,-44.33984 3.26953,-2.91016 c 5.46,-4.89 12.48992,-3.52054 15.16992,2.93946 0.91,2.19998 1.11102,13.27101 0.79102,44.29101 -0.38,37.58 -0.61125,42.18906 -2.53125,50.53906 -4.33,18.84 -10.51875,33.44055 -20.71875,48.81055 C 599.35047,691.84 568.04,712.65055 534,718.31055 l -7.5,1.25 V 817.5 l 44.15039,1 4.25,2.81055 c 5.06037,3.35117 8.77397,10.41699 9.07031,17.10937 33.84951,-7.87075 68.56997,-21.6964 98.5293,-39.68945 61.24,-36.77 110.0393,-92.65 137.7793,-157.75 5.98,-14.03 14.89117,-41.66117 18.20117,-56.45117 28.88,-129.01 -20.88039,-260.63994 -129.15039,-341.66992 -54.74,-40.97626 -122.43471,-63.76124 -190.95117,-64.8379 z M 440.18164,838.0958 C 0,0 0,0 440.18164,838.0958 Z m 72.1543,-619.17002 c 2.23625,-0.0825 4.43984,0.75344 6.21484,2.52344 L 521,223.91016 v 56.60937 c 0,36.92 -0.3593,57.28102 -1.0293,58.54102 -0.98,1.83 -5.97992,5.0089 -7.66992,4.8789 -2.98196,-0.50006 -5.21947,-2.25486 -7.16016,-4.49023 C 503.01063,336.74922 503,336.41906 503,280.78906 v -55.93945 l 2.91992,-2.92969 c 1.91,-1.91 4.17977,-2.91164 6.41602,-2.99414 z m 61.48437,10.97461 c 2.31125,0.0238 4.60477,0.91969 6.25977,2.67969 l 2.41992,2.58008 0.2793,45.36914 0.28125,45.37109 -2.78125,2.96875 c -3.5,3.75 -5.93922,4.40016 -9.94922,2.66016 -1.75,-0.75 -3.66,-2.26891 -4.25,-3.37891 -0.73,-1.36 -1.08008,-16.92086 -1.08008,-47.63086 v -45.60937 l 2.44922,-2.46094 c 1.73,-1.725 4.05984,-2.57258 6.37109,-2.54883 z m -123.4375,0.084 c 2.1775,-0.008 4.41664,0.80078 6.30664,2.42578 l 2.81055,2.41992 v 92.11914 l -2.5,2.41992 c -4.04672,4.41004 -10.57065,3.50276 -13.91992,-1.21875 C 442.35008,326.7904 442,311.22954 442,280.51954 v -45.60937 l 2.44922,-2.46094 c 1.64,-1.635 3.75609,-2.45734 5.93359,-2.46484 z m 92.9961,17.90234 c 2.16875,0.0275 4.26625,1.09336 6.03125,3.19336 L 552,254.15039 v 55 l -2.91992,2.92969 c -2.96,2.96 -5.78071,3.51969 -9.7207,1.92969 -5.14,-2.08 -5.35938,-3.40055 -5.35938,-32.81055 v -27.34961 l 2.91992,-2.92969 c 2.05,-2.05 4.29024,-3.0607 6.45899,-3.0332 z m -62.06055,0.3164 c 3.91904,-0.21683 6.69852,1.59227 8.29102,5.41602 2.12999,5.09 1.6514,53.73055 -0.5586,57.06055 -4.85578,7.16285 -11.24933,3.20567 -16.08008,-1.17969 l -0.041,-27.83984 c 1.4236,-9.01344 -5.71719,-32.18315 8.38867,-33.45704 z m 123.08203,4.67969 c 2.41875,-0.0613 4.81914,0.72219 6.36914,2.36719 2.01,2.15 2.13133,3.39 2.36133,25.25 0.27,24.69 0.009,26.20969 -4.87109,28.42969 -3.11,1.42 -5.19071,1.29953 -8.47071,-0.48047 -4.31,-2.34 -4.96937,-6.59914 -4.60937,-29.61914 0.31,-20.3 0.36023,-20.72 2.74023,-23.25 1.625,-1.73 4.06172,-2.63602 6.48047,-2.69727 z M 420.4707,253 c 4.07,0 4.76907,0.35 6.53907,3.25 1.82,2.98 1.98023,5.08008 1.99023,25.58008 v 22.32031 c -3.53894,3.97272 -7.09653,6.84742 -12.64062,4.85938 -5.03002,-2.03 -5.35938,-3.7893 -5.35938,-28.2793 v -22.82031 c 2.63255,-3.10069 5.29408,-4.83563 9.4707,-4.91016 z m -30.78125,13.92969 c 8.13707,0.19233 8.28273,7.32406 8.31055,13.80078 0,10.73 -0.34031,11.87859 -4.07031,13.80859 -3.34,1.72 -5.67969,1.81055 -8.42969,0.31055 -3.91,-2.14 -4.5,-3.94914 -4.5,-13.86914 -0.49805,-6.96797 0.47245,-13.87812 8.68945,-14.05078 z M 636.00977,267 c 6.22,0 7.99023,3.15094 7.99023,14.21094 0,8.55 -0.12992,9.06914 -2.91992,11.86914 -2.96,2.96 -5.78071,3.51969 -9.7207,1.92969 -4.04,-1.63 -5.35938,-4.8993 -5.35938,-13.2793 0,-8.16 1.54906,-12.96133 4.53906,-14.11133 0.9,-0.34 3.35071,-0.61914 5.47071,-0.61914 z m -124.09961,95.01953 c 14.66,0.02 23.16992,1.58047 33.91992,6.23047 25.51,11.03 43.67969,32.61094 50.67969,60.21094 L 599,438.25977 v 82.04101 c 0,72.62 -7e-4,84.54992 -3.7207,95.16992 -0.75,2.17 -1.66953,4.28961 -2.76953,6.84961 C 587.04977,635.06031 583.03,640.96 573,651 c -13.44,13.44 -26.88094,20.85992 -44.21094,24.41992 -7.04,1.44 -22.62906,1.92063 -28.78906,0.89063 -14.03,-2.36 -30.74086,-9.95992 -42.13086,-19.16993 -11.11,-8.98999 -18.38961,-18.5007 -24.84961,-32.4707 -1.53,-3.31 -2.74875,-5.81992 -3.71875,-8.41992 -3.81,-10.2 -3.81078,-21.82938 -3.80078,-88.85938 V 518 434.5 l 2.75977,-8.80078 c 8.19,-26.12 24.80992,-45.46891 48.41992,-56.37891 11.88,-5.49 20.74047,-7.32078 35.23047,-7.30078 z m -0.0664,19.43555 c -0.0919,-0.003 -0.18335,-0.002 -0.27539,0.002 -1.22725,0.0571 -2.44219,0.77539 -2.89844,1.96289 -0.27,0.69 -0.39906,9.08992 -0.28906,18.66992 0.1,9.58 0.0186,18.31016 -0.19141,19.41016 -0.22,1.16 -2.12929,2.84 -4.52929,4 -5.79,2.79 -8.66016,7.45055 -8.66016,14.06055 v 5.25976 l -12.21094,6.46875 c -12.19,6.46 -12.21,6.46063 -14.75,4.64063 -6,-4.3 -14.81984,-2.85969 -18.83984,3.07031 -1.94,2.86 -2.28992,4.40945 -1.91992,8.43945 0.38,4.05 1.08164,5.51133 3.93164,8.11133 1.9,1.74 3.97914,3.3486 4.61914,3.5586 0.77,0.25999 2.04008,11.54148 3.83008,34.02148 l 2.66992,33.63867 -4.08008,3.87109 c -7.04,6.71002 -6.4707,15.93977 1.2793,20.50977 3.62,2.14 3.62984,2.16 3.08984,7.75 -0.3,3.08 -0.83969,10.02016 -1.17969,15.41016 -0.57,8.82 -0.84906,9.90039 -2.78906,10.65039 -5.18,2 -9.2707,9.67898 -7.9707,14.95898 1.56,6.34 6.38953,10.08008 13.01953,10.08008 7.67,-0.01 14.15148,-7.19922 13.02148,-14.44922 -0.46,-2.93 0.0191,-3.38992 12.53907,-11.91992 l 13.00976,-8.87109 3.14063,1.49023 3.1289,1.5 -0.0996,29.2207 c -0.09,23.89 0.14102,29.46914 1.29102,30.61914 1.73,1.72 2.52031,1.76094 4.07031,0.21094 0.88,-0.88 1.19922,-9.01109 1.19922,-30.37109 v -29.16016 l 7.99023,-5.28906 11,5.51953 c 10.02,5.02 11.00977,5.76953 11.00977,8.26953 0,4.14 3.23055,9.35039 7.06055,11.40039 9,4.83 18.93945,-1.11078 18.93945,-11.30078 0,-4.19 -0.50914,-5.41914 -3.61914,-8.86914 l -3.62109,-4.00977 4.17968,-18.75 c 5.01,-22.41 5.63985,-25.48101 7.33985,-26.29101 0.33,-0.16 0.70039,-0.22984 1.15039,-0.33984 3.94,-0.99001 8.46101,-5.49024 9.54101,-9.49024 1.97,-7.34 -2.11164,-14.36875 -9.43164,-16.21875 l -4.03906,-1.00977 -4.84961,-13.95117 -4.84961,-13.94922 3.09961,-3.52929 c 2.61,-2.97 3.09961,-4.35188 3.09961,-8.67188 0,-4.79 -0.30031,-5.41976 -4.57031,-9.50976 l -4.58008,-4.38868 1.28125,-17.08984 c 0.7,-9.41 1.74836,-17.46992 2.31836,-17.91992 9.38,-7.29 11.38984,-11.03024 9.58984,-17.74024 -1.64,-6.07999 -5.89875,-9.14062 -12.71875,-9.14062 -4.93,0 -5.88062,0.35914 -8.89062,3.36914 -2.25,2.25 -3.57977,4.71016 -4.00977,7.41016 l -0.65039,4.05078 -10.57031,4.58984 -10.56836,4.59961 -2.57031,-2.44922 c -1.41,-1.34 -3.80055,-2.91047 -5.31055,-3.48047 L 515,423.05078 v -19.90039 c 0,-15.66 -0.28914,-20.15102 -1.36914,-21.04101 -0.51188,-0.42329 -1.14395,-0.63182 -1.78711,-0.6543 z m 37.48047,45.92773 c 1.36607,0.0771 2.31726,0.76719 3.79492,1.89649 l 3.39063,2.58008 L 555,450.01953 c -1.3,15.79 -1.74945,18.34031 -3.43945,19.57031 -1.07,0.77 -2.20149,1.41016 -2.52149,1.41016 -0.31,0 -5.54867,-5.06 -11.63867,-11.25 l -11.07031,-11.25 1.40039,-4 c 0.77,-2.2 1.19898,-5.05008 0.95898,-6.33008 -0.39,-2.06 0.41961,-2.73015 6.84961,-5.66015 7.56563,-3.44813 10.96202,-4.9723 13.17188,-5.1211 0.21484,-0.0145 0.41813,-0.0169 0.61328,-0.006 z m -50.91797,23.97266 c 0.57625,-0.008 0.98852,0.13703 1.35352,0.39453 0.96,0.68 3.43976,2.14953 5.50976,3.26953 l 3.76953,2.04102 -0.47851,20.71875 c -0.27,11.4 -0.51125,21.24109 -0.53125,21.87109 -0.03,0.99 -4.97,3.34961 -7,3.34961 -0.37,0 -7.03836,-6.70086 -14.81836,-14.88086 l -14.14063,-14.87891 0.60938,-5.20117 0.62109,-5.19922 12.35938,-6.16015 c 7.815,-3.8925 11.01734,-5.29891 12.74609,-5.32422 z m 23.84375,2.42383 21.25,21.1914 -0.16992,6.61914 -0.16992,6.63086 -9.49024,7.88868 c -5.21,4.34 -9.86008,7.88132 -10.33008,7.86132 -0.46,-0.02 -1.70929,-0.69 -2.77929,-1.5 -1.07,-0.81 -2.76,-1.4707 -3.75,-1.4707 C 515.12055,501 515,499.54922 515,478.69922 v -22.29883 l 3.61914,-1.31055 z m -55.73047,24.24023 c 0.93,-0.02 7.77086,6.76039 23.88086,23.65039 l 5.87891,6.16992 -1.63868,4.09961 c -1.95999,4.9 -2.01093,8.27008 -0.21093,13.33008 l 1.34961,3.76953 -10.47852,9.73047 c -5.76,5.35 -10.77062,9.84094 -11.14062,9.96094 -0.36,0.13 -1.78016,-0.32953 -3.16016,-1.01953 l -2.49023,-1.27149 -2.60938,-33.46875 c -2.6,-33.33 -2.58086,-34.91117 0.61914,-34.95117 z m 81.06641,15.16992 c 0.83177,-0.0478 3.20625,0.65586 5.48437,1.63086 l 4.42969,1.90039 4.44922,13.60938 4.45117,13.61914 -2.37109,2.52148 c -1.31,1.39 -2.85922,2.48922 -3.44922,2.44922 -0.6,-0.04 -7.61008,-2.00914 -15.58008,-4.36914 l -14.5,-4.29101 -0.58008,-3.37891 c -0.31,-1.86 -0.89906,-4.36031 -1.28906,-5.57031 -0.62,-1.87 0.60945,-3.32 8.43945,-10 5.04,-4.29 9.69914,-7.93961 10.36914,-8.09961 0.0412,-0.01 0.091,-0.0183 0.14649,-0.0215 z m -18.14649,33.79102 c 0.58,-0.01 7.66071,1.86969 15.72071,4.17969 14.27,4.09 14.67976,4.27898 15.25976,7.20898 0.33,1.65 0.25985,3.31164 -0.16015,3.68164 -3.17,2.79 -40.07891,31.93891 -40.37891,31.87891 -0.21,-0.03 -1.39086,-0.55039 -2.63086,-1.15039 -2.2,-1.06 -2.25,-1.43852 -2.25,-18.22852 v -17.15039 l 4.43945,-2.16016 c 2.44,-1.18 5.45141,-3.52117 6.69141,-5.20117 1.23,-1.67 2.71859,-3.04859 3.30859,-3.05859 z m -29.35937,6.7793 4.45898,1.70117 4.46094,1.70898 v 33.85938 l -3.25,1.98047 c -1.79,1.09 -3.7,1.95945 -4.25,1.93945 -0.55,-0.03 -5.61,-2.53986 -11.25,-5.58984 -8.39,-4.54001 -10.25,-5.95032 -10.25,-7.82032 0,-1.26 -0.26008,-3.58945 -0.58008,-5.18945 -0.53,-2.65 0.30102,-3.71025 10.04102,-12.74023 z m 65.70703,13.48437 c 0.0193,3e-4 0.0371,0.002 0.0527,0.006 0.45,0.1 0.82079,0.0492 1.05078,0.19922 0.73001,0.48 0.18993,2.88984 -3.08007,17.58984 -0.42,1.88 -0.88063,3.97125 -1.39063,6.28125 l -4.83984,21.83008 -3.5,1.45899 c -1.93,0.80998 -4.20102,2.03093 -5.04102,2.71093 -1.28,1.04 -3.40906,0.28055 -12.53906,-4.43945 l -11,-5.69141 -0.58008,-4.21875 -0.58984,-4.21093 19.91992,-15.93946 c 11.77313,-9.41062 20.31906,-15.59507 21.53711,-15.57617 z m -87.82617,22.57617 10.26953,5.50977 10.26953,5.50976 0.33008,8.72071 -12.05078,8.29883 c -6.63,4.56998 -12.55016,8.4814 -13.16016,8.6914 -0.62,0.2 -2.39898,-0.31992 -3.95898,-1.16992 -2.79,-1.51 -2.83953,-1.67094 -2.26954,-8.21094 0.32,-3.67 0.84946,-10.50922 1.18946,-15.19922 l 0.61914,-8.53125 4.38086,-1.80859 z"
     style="display:none;fill:#00aad4;fill-rule:nonzero;stroke:#22d3ee;stroke-width:0;stroke-linejoin:round;stroke-dasharray:none;stroke-opacity:1"
     transform="translate(10.807388,-41.878628)" />
</svg>
